<?xml version="1.0" encoding="UTF-8"?> <svg xmlns="http://www.w3.org/2000/svg" width="653.98" height="240" viewBox="0 0 653.98 240"><path d="M45.41 99.33c-.093 0-.19-.018-.227-.048l-.417-.337c-.776-.629-55.796-82.6.643-82.6 56.44 0 1.42 81.971.644 82.6l-.416.337c-.037.03-.135.048-.227.048z" fill="#a2b0d0"></path><path d="M43.466 141.409l-.438-.328c-.022-.022-.131-.044-.218-.044-.088 0-.197.022-.22.044l-.415.328c-.175.131-2.953 4.178-6.584 10.412 2.187 3.61 4.2 7.329 6.015 11.113l.197.394c.963 2.034 1.882 4.09 2.735 6.169 3.456 8.29 6.015 16.909 7.7 25.747l-6.453 1.225a124.798 124.798 0 0 0-8.379-26.972H26.381c-4.878 10.675-8.99 22.684-8.99 32.703 0 1.16.043 2.275.175 3.369.153 1.553.437 3.04.853 4.44 2.428 8.335 9.56 14 24.39 14 56.438 0 1.422-81.966.657-82.6z" fill="#d7dc31"></path><path d="M34.278 162.934h-4.747c.788-1.553 1.575-3.04 2.341-4.484.831 1.487 1.64 2.975 2.406 4.484z" fill="#d7dc31"></path><path d="M6.563 207.712c0-15.793 2.821-28.46 6.453-38.215h24.39a124.798 124.798 0 0 1 8.379 26.972l6.453-1.225c-1.685-8.838-4.244-17.457-7.7-25.747a128.946 128.946 0 0 0-2.735-6.17l-.197-.393a129.773 129.773 0 0 0-6.015-11.113 128.06 128.06 0 0 0-7.678-11.287l-2.32-3.063-2.668 2.779c-2.844 2.975-9.1 10.39-14.35 22.684a86.046 86.046 0 0 0-2.516 6.563C2.56 179.58 0 192.269 0 207.712c0 2.122.175 4.157.503 6.104l6.213-2.997a28.377 28.377 0 0 1-.153-3.107zm18.506-59.96a124.338 124.338 0 0 1 6.803 10.698c.831 1.487 1.64 2.975 2.406 4.484h-18.55c3.26-6.956 6.738-11.966 9.34-15.181zm33.097-11.287c-1.969-2.581-4.638-6.147-8.969-12.25C23.757 88.187 5.36 62.177 9.691 36.08c.175-1.028.35-1.903.35-1.99 1.815-8.357 7.897-19.185 19.578-24.5 10.96-4.988 24.325-3.785 34.016 3.084 5.468 3.872 8.75 8.838 10.762 13.147l5.906-2.844c-2.362-5.031-6.3-11.003-12.884-15.662C55.847-.867 39.944-2.31 26.906 3.618 13.016 9.94 5.775 22.802 3.631 32.733a47.643 47.643 0 0 0-.415 2.276c-4.77 28.765 14.262 55.693 40.622 92.99 4.375 6.191 7.11 9.8 9.078 12.426 2.778 3.675 4.047 5.337 6.475 9.668 12.36 21.92 29.072 61.163 2.384 77.854-6.518 4.069-14.481 5.95-23.034 5.403-12.578-.787-27.213-4.725-31.15-18.09l-6.016 2.887c4.222 12.884 16.91 20.497 36.75 21.744 1.094.065 2.188.109 3.281.109 8.707 0 16.822-2.21 23.647-6.475 13.454-8.422 31.304-30.844-.13-86.647-2.67-4.703-4.092-6.607-6.957-10.413zM82.01 27.024l-5.928 2.866c.48 1.378.83 2.56 1.115 3.478 7.656 25.834-10.084 51.494-17.894 61.14a144.558 144.558 0 0 1-5.534-7.94C36.925 60.69 39.485 45.946 39.529 45.793l-3.216-.656-3.216-.678c-.175.809-3.566 18.309 16.953 48.365a165.972 165.972 0 0 0 6.54 8.947l2.407 3.107 2.625-2.954c5.36-5.993 31.588-37.668 21.853-70.416-.328-1.093-.787-2.646-1.465-4.484zm111.438 106.408l-19.923 55.536-19.732-55.536h-11.742l25.217 66.894h12.705l25.121-66.894h-11.646zm28.21 20.612c-6.639 0-12.052 2.137-16.24 6.405-4.186 4.272-6.28 9.959-6.28 17.066 0 7.108 2.066 12.811 6.199 17.11 4.132 4.295 9.504 6.444 16.115 6.444 5.344 0 9.835-1.335 13.472-4.007 3.635-2.673 6.142-6.101 7.52-10.29H232.28c-2.095 4.244-5.703 6.363-10.827 6.363-3.527 0-6.46-1.115-8.8-3.347-2.344-2.23-3.625-5.247-3.844-9.05h34.876c.22-1.375.33-2.864.33-4.462 0-6.611-2.065-11.97-6.198-16.075-4.133-4.104-9.518-6.157-16.157-6.157zm-12.768 20.25c.33-3.747 1.667-6.736 4.009-8.968 2.341-2.233 5.248-3.348 8.719-3.348 3.47 0 6.417 1.115 8.843 3.348 2.424 2.232 3.664 5.22 3.72 8.968h-25.29zm53.184-30.828h-9.504v11.322h-5.373v7.686h5.373v25.208c0 8.43 4.38 12.644 13.14 12.644h7.438v-7.85h-5.785c-1.929 0-3.293-.372-4.09-1.118-.8-.743-1.199-1.967-1.199-3.676v-25.208h11.074v-7.686h-11.074v-11.322zm42.98-10.13l-23.966 66.99h11.453l4.813-13.668h28.01l4.811 13.668h11.551l-23.967-66.99h-12.705zm-4.717 44.756l11.07-31.473 10.973 31.473h-22.043zm84.896-15.204c-1.487-2.644-3.596-4.778-6.322-6.406-2.727-1.624-5.883-2.438-9.463-2.438-6.116 0-11.226 2.164-15.33 6.488-4.106 4.326-6.158 9.946-6.158 16.86s2.067 12.59 6.199 17.025c4.131 4.435 9.228 6.652 15.289 6.652 3.58 0 6.72-.84 9.42-2.52 2.701-1.68 4.822-3.925 6.365-6.736v9.256c0 4.407-1.171 7.77-3.512 10.083-2.342 2.314-5.277 3.472-8.802 3.472-3.527 0-6.46-.73-8.801-2.19-2.343-1.461-3.87-3.375-4.586-5.744h-9.34c.549 4.958 2.865 8.884 6.943 11.777 4.076 2.892 9.393 4.339 15.949 4.339s11.805-2.025 15.744-6.076c3.94-4.048 5.909-9.269 5.909-15.66v-46.282h-9.504v8.1zm-4.091 25.825c-2.726 2.784-5.965 4.175-9.71 4.175-3.749 0-6.985-1.419-9.71-4.256-2.729-2.837-4.092-6.599-4.092-11.281 0-4.683 1.363-8.374 4.091-11.075 2.726-2.698 5.962-4.05 9.712-4.05 3.744 0 6.983 1.378 9.709 4.134 2.728 2.756 4.09 6.473 4.09 11.155 0 4.685-1.362 8.417-4.09 11.198zm33.225-25.991v-7.934h-9.421v45.538h9.42V176.36c0-4.63.951-7.879 2.853-9.752 1.899-1.874 4.695-2.812 8.386-2.812h2.397v-9.752c-6.171 0-10.715 2.893-13.635 8.678zm44.666-8.678c-6.611 0-12.136 2.164-16.57 6.488-4.435 4.326-6.653 10-6.653 17.026 0 7.024 2.15 12.7 6.447 17.024 4.296 4.326 9.765 6.487 16.405 6.487s12.232-2.174 16.778-6.528c4.543-4.351 6.816-10.027 6.816-17.026 0-6.996-2.217-12.657-6.652-16.983-4.435-4.324-9.959-6.488-16.57-6.488zm9.423 34.96c-2.755 2.756-6.022 4.131-9.794 4.131-3.775 0-6.93-1.362-9.464-4.09-2.534-2.726-3.8-6.557-3.8-11.487s1.294-8.76 3.883-11.489c2.59-2.726 5.785-4.09 9.588-4.09 3.8 0 7.037 1.364 9.711 4.09 2.67 2.728 4.008 6.544 4.008 11.446 0 4.905-1.378 8.733-4.132 11.489zm86.695-20.681c-2.18-1.122-4.588-2.036-7.218-2.743a177.377 177.377 0 0 0-7.891-1.925c-2.632-.579-5.04-1.266-7.22-2.07-2.182-.8-3.964-2.036-5.341-3.706-1.383-1.666-2.07-3.815-2.07-6.447 0-4.044 1.313-7.125 3.945-9.242 2.632-2.117 6.065-3.176 10.299-3.176 4.236 0 7.57 1.01 10.01 3.033 2.438 2.021 3.786 4.38 4.042 7.073h7.605c-.77-4.813-2.952-8.662-6.545-11.55-3.593-2.886-8.517-4.33-14.774-4.33s-11.295 1.668-15.112 5.005-5.727 7.573-5.727 12.704c0 5.135 1.283 9.05 3.851 11.743 2.566 2.696 5.661 4.51 9.289 5.439 3.623.931 7.248 1.75 10.875 2.454 3.623.707 6.72 1.972 9.289 3.8 2.565 1.83 3.849 4.56 3.849 8.182 0 3.628-1.395 6.66-4.187 9.097-2.792 2.44-6.545 3.657-11.262 3.657-4.715 0-8.261-1.01-10.634-3.032-2.376-2.02-3.692-4.571-3.946-7.652h-7.124c0 5.006 2.052 8.985 6.16 11.936 4.106 2.952 9.447 4.426 16.027 4.426 6.575 0 11.757-1.89 15.543-5.678 3.785-3.786 5.68-8.212 5.68-13.283 0-3.4-.692-6.255-2.07-8.567-1.38-2.309-3.162-4.024-5.343-5.148zm41.38 14.475c0 4.495-1.086 7.915-3.258 10.263-2.173 2.347-5.145 3.52-8.915 3.52-3.77 0-6.74-1.173-8.912-3.52-2.173-2.348-3.258-5.768-3.258-10.263V159.43h-5.17v24.342c0 5.593 1.523 9.876 4.57 12.845 3.046 2.972 6.84 4.459 11.386 4.459 6.291 0 10.81-2.472 13.556-7.417v6.667h5.243V159.43h-5.243v23.368zm51.87-18.389c-3.722-3.82-8.454-5.729-14.196-5.729-3.696 0-6.94.9-9.737 2.696-2.796 1.799-4.868 4.12-6.216 6.966v-8.912h-5.243v60.22h5.243v-28.313c1.348 2.847 3.42 5.182 6.216 7.004 2.796 1.823 6.041 2.735 9.737 2.735 5.693 0 10.412-2.023 14.157-6.067 3.745-4.046 5.618-9.2 5.618-15.469 0-6.265-1.86-11.309-5.58-15.13zm-4.271 27.415c-2.971 3.172-6.554 4.757-10.747 4.757-4.196 0-7.766-1.536-10.712-4.606-2.948-3.071-4.42-7.103-4.42-12.097 0-4.992 1.472-9.026 4.42-12.098 2.946-3.07 6.529-4.605 10.748-4.605 4.219 0 7.801 1.474 10.75 4.42 2.945 2.945 4.417 6.927 4.417 11.945 0 5.018-1.484 9.114-4.456 12.284zm7.782-91.321H140.46v8.75h511.452v-8.75z" fill="#38373a"></path></svg> 